<svg xmlns="http://www.w3.org/2000/svg" viewBox="0 0 220 142"><defs><style>.cls-1{fill:#4d5059;}.cls-2{fill:#bec2d3;}</style></defs><title>Asset 9</title><g id="Layer_2" data-name="Layer 2"><g id="Layer_2-2" data-name="Layer 2"><path class="cls-1" d="M220,74.5c0,15.22-24.41,27.75-55.77,29.33-4.12,7.69-15,13.17-27.73,13.17a37.83,37.83,0,0,1-20.3-5.5A77.35,77.35,0,0,1,87,117c-30.93,0-56-16.79-56-37.5,0-15.39,13.85-28.62,33.66-34.39A16.11,16.11,0,0,1,64,40.5C64,29.18,75.42,20,89.5,20c.7,0,1.4,0,2.09.08C99.8,8.24,118.17,0,139.5,0,164.94,0,186.16,11.72,191,27.29c7.84,3.64,13,10,13,17.21a15.86,15.86,0,0,1-2.82,8.9C212.79,58.76,220,66.23,220,74.5Z"/><path class="cls-2" d="M189,99.5c0,15.22-24.41,27.75-55.77,29.33-4.12,7.69-15,13.17-27.73,13.17a37.83,37.83,0,0,1-20.3-5.5A77.35,77.35,0,0,1,56,142c-30.93,0-56-16.79-56-37.5C0,89.11,13.85,75.88,33.66,70.11A16.11,16.11,0,0,1,33,65.5C33,54.18,44.42,45,58.5,45c.7,0,1.4,0,2.09.08C68.8,33.24,87.17,25,108.5,25c25.44,0,46.66,11.72,51.47,27.29,7.84,3.64,13,10,13,17.21a15.86,15.86,0,0,1-2.82,8.9C181.79,83.76,189,91.23,189,99.5Z"/></g></g></svg>