<svg xmlns="http://www.w3.org/2000/svg" viewBox="0 0 189 117"><defs><style>.cls-1{fill:#bec2d3;}</style></defs><title>Asset 4</title><g id="Layer_2" data-name="Layer 2"><g id="Layer_2-2" data-name="Layer 2"><path class="cls-1" d="M189,74.5c0,15.22-24.41,27.75-55.77,29.33-4.12,7.69-15,13.17-27.73,13.17a37.83,37.83,0,0,1-20.3-5.5A77.35,77.35,0,0,1,56,117C25.07,117,0,100.21,0,79.5,0,64.11,13.85,50.88,33.66,45.11A16.11,16.11,0,0,1,33,40.5C33,29.18,44.42,20,58.5,20c.7,0,1.4,0,2.09.08C68.8,8.24,87.17,0,108.5,0,133.94,0,155.16,11.72,160,27.29c7.84,3.64,13,10,13,17.21a15.86,15.86,0,0,1-2.82,8.9C181.79,58.76,189,66.23,189,74.5Z"/></g></g></svg>