<svg xmlns="http://www.w3.org/2000/svg" viewBox="0 0 189 143.79"><defs><style>.cls-1{fill:#4d5059;}.cls-2{fill:#6d6d6d;}</style></defs><title>Asset 13</title><g id="Layer_2" data-name="Layer 2"><g id="Layer_2-2" data-name="Layer 2"><path class="cls-1" d="M189,74.5c0,15.22-24.41,27.75-55.77,29.33-4.12,7.69-15,13.17-27.73,13.17a37.83,37.83,0,0,1-20.3-5.5A77.35,77.35,0,0,1,56,117C25.07,117,0,100.21,0,79.5,0,64.11,13.85,50.88,33.66,45.11A16.11,16.11,0,0,1,33,40.5C33,29.18,44.42,20,58.5,20c.7,0,1.4,0,2.09.08C68.8,8.24,87.17,0,108.5,0,133.94,0,155.16,11.72,160,27.29c7.84,3.64,13,10,13,17.21a15.86,15.86,0,0,1-2.82,8.9C181.79,58.76,189,66.23,189,74.5Z"/><ellipse class="cls-2" cx="41.94" cy="115.84" rx="26.5" ry="1" transform="translate(-80.41 101.42) rotate(-63.38)"/><ellipse class="cls-2" cx="73.76" cy="96.4" rx="20.21" ry="0.83" transform="translate(-45.47 119.14) rotate(-63.38)"/><ellipse class="cls-2" cx="136.76" cy="108.9" rx="18.43" ry="1.05" transform="translate(-21.88 182.35) rotate(-63.38)"/><ellipse class="cls-2" cx="125.1" cy="92.1" rx="26.5" ry="1" transform="translate(-13.29 162.66) rotate(-63.38)"/><ellipse class="cls-2" cx="104.26" cy="85.9" rx="19.54" ry="1.05" transform="translate(-19.25 140.61) rotate(-63.38)"/><ellipse class="cls-2" cx="100.1" cy="120.1" rx="26.5" ry="1" transform="translate(-52.12 155.76) rotate(-63.38)"/><ellipse class="cls-2" cx="169.65" cy="84.85" rx="18.42" ry="1.16" transform="translate(17.77 198.49) rotate(-63.38)"/><ellipse class="cls-2" cx="82.1" cy="108.1" rx="26.5" ry="1" transform="translate(-51.33 133.05) rotate(-63.38)"/><ellipse class="cls-2" cx="65.1" cy="96.1" rx="26.5" ry="1" transform="translate(-49.98 111.23) rotate(-63.38)"/><ellipse class="cls-2" cx="29.97" cy="96.07" rx="26.5" ry="1" transform="translate(-69.34 79.81) rotate(-63.38)"/></g></g></svg>