<svg xmlns="http://www.w3.org/2000/svg" viewBox="0 0 157 157"><defs><style>.cls-1{fill:#b7a5ff;}</style></defs><title>Asset 12</title><g id="Layer_2" data-name="Layer 2"><g id="Layer_2-2" data-name="Layer 2"><path class="cls-1" d="M144.5,64H112.1l23.27-23.27a12.51,12.51,0,0,0,0-17.68h0a12.51,12.51,0,0,0-17.68,0L92,48.74V12.5a12.5,12.5,0,0,0-25,0V44.32L41.67,19A12.51,12.51,0,0,0,24,19h0a12.51,12.51,0,0,0,0,17.68L51.32,64H12.5a12.5,12.5,0,0,0,0,25H51.74L24.35,116.39A12.5,12.5,0,0,0,42,134.07l25-25v35.4a12.5,12.5,0,0,0,25,0V104.68L117.33,130A12.5,12.5,0,0,0,135,112.33L111.68,89H144.5a12.5,12.5,0,0,0,0-25Z"/></g></g></svg>