<svg xmlns="http://www.w3.org/2000/svg" viewBox="0 0 208 157.96"><defs><style>.cls-1{fill:#080844;}.cls-2{fill:#4d5059;}</style></defs><title>Asset 8</title><g id="Layer_2" data-name="Layer 2"><g id="Layer_2-2" data-name="Layer 2"><circle class="cls-1" cx="107.5" cy="72.5" r="72.5"/><path class="cls-2" d="M200,131.37c0,14.68-24.27,26.59-54.21,26.59-19,0-35.8-4.82-45.47-12.11A95.36,95.36,0,0,1,75.5,149c-29,0-52.5-11.86-52.5-26.5,0-13.26,19.3-24.25,44.48-26.2C73.1,82.38,94.12,72,119.19,72c29.38,0,53.19,14.2,53.19,31.71,0,.31,0,.61,0,.92,3.94,1.56,6.17,3.34,6.17,5.22a2.45,2.45,0,0,1,0,.27C191.56,115,200,122.71,200,131.37Z"/><ellipse class="cls-2" cx="59.5" cy="48.5" rx="59.5" ry="12.5"/><ellipse class="cls-2" cx="148.5" cy="15.5" rx="59.5" ry="12.5"/></g></g></svg>